<?xml version="1.0" encoding="UTF-8"?>
<svg xmlns="http://www.w3.org/2000/svg" viewBox="0 0 3868.61 467.87">
  <g id="icon">
    <g>
      <path d="m343.13,0h-63.26c-5.18,0-9.37,4.2-9.37,9.37v154.63h-119.63c-5.18,0-9.37,4.2-9.37,9.37v63.26c0,5.18,4.2,9.37,9.37,9.37h119.63v152.63c0,5.18,4.2,9.37,9.37,9.37h63.26c5.18,0,9.37-4.2,9.37-9.37V9.37c0-5.18-4.2-9.37-9.37-9.37Z" fill="#72cf80" style="stroke-width: 0px;"/>
      <path d="m168.13,326h-86.13V82h86.13c5.18,0,9.37-4.2,9.37-9.37V9.37c0-5.18-4.2-9.37-9.37-9.37H9.37C4.2,0,0,4.2,0,9.37v389.26c0,5.18,4.2,9.37,9.37,9.37h158.76c5.18,0,9.37-4.2,9.37-9.37v-63.26c0-5.18-4.2-9.37-9.37-9.37Z" fill="#72cf80" style="stroke-width: 0px;"/>
    </g>
  </g>
  <g id="text">
    <g>
      <polygon points="452.02 99.35 555.18 99.35 555.18 372.34 636.12 372.34 636.12 99.35 739.11 99.35 739.11 32.68 452.02 32.68 452.02 99.35" fill="#FDF9F5" style="stroke-width: 0px;"/>
      <path d="m983.9,126.14c-13.27-7.9-28.86-11.86-46.77-11.86-19.02,0-35.08,4.42-48.18,13.27-13.1,8.85-22.53,21.12-28.28,36.82h-2.82V32.68h-78.45v339.66h81.1v-145.28c.11-9.73,1.96-18.02,5.56-24.88,3.59-6.85,8.62-12.13,15.09-15.84,6.47-3.7,13.96-5.56,22.47-5.56,13.04,0,23.16,3.98,30.35,11.94,7.19,7.96,10.72,19.02,10.61,33.17v146.44h81.1v-162.36c.11-19.24-3.51-36.04-10.86-50.42-7.35-14.37-17.66-25.51-30.93-33.42Z" fill="#FDF9F5" style="stroke-width: 0px;"/>
      <path d="m1281.42,147.78c-10.95-11.05-23.94-19.4-38.97-25.04-15.04-5.64-31.62-8.46-49.75-8.46-25.65,0-47.93,5.5-66.84,16.5-18.91,11-33.56,26.37-43.95,46.11-10.39,19.74-15.59,42.76-15.59,69.08s5.17,50.45,15.51,70.07c10.34,19.63,25.15,34.72,44.45,45.28,19.29,10.56,42.26,15.84,68.91,15.84,22.22,0,41.79-3.4,58.71-10.2,16.92-6.8,30.6-16.36,41.05-28.69,10.45-12.33,17.22-26.84,20.32-43.53l-74.47-2.16c-2.1,5.64-5.25,10.39-9.45,14.26-4.2,3.87-9.23,6.8-15.09,8.79-5.86,1.99-12.38,2.99-19.57,2.99-10.39,0-19.35-2.16-26.87-6.47-7.52-4.31-13.33-10.37-17.41-18.16-4.09-7.79-6.14-16.89-6.14-27.28v-2.16h169.83v-20.23c0-20.9-3.04-39.44-9.12-55.64-6.08-16.2-14.59-29.82-25.54-40.88Zm-135.09,69.66c.4-8.2,2.57-15.58,6.56-22.14,4.2-6.91,9.89-12.38,17.08-16.42,7.19-4.04,15.31-6.05,24.38-6.05s16.89,1.91,23.8,5.72c6.91,3.81,12.36,9.1,16.34,15.84,3.98,6.75,6.02,14.43,6.14,23.05h-94.3Z" fill="#FDF9F5" style="stroke-width: 0px;"/>
      <path d="m1474.71,112.12c11.88-8.07,26.06-12.11,42.54-12.11,9.29,0,17.77,1.3,25.46,3.9,7.68,2.6,14.35,6.33,19.98,11.19,5.64,4.87,10.17,10.73,13.6,17.58,3.43,6.86,5.69,14.54,6.8,23.05h82.92c-1.99-20.34-7.13-38.42-15.42-54.23-8.29-15.81-19.07-29.16-32.34-40.05-13.27-10.89-28.64-19.18-46.11-24.88-17.47-5.69-36.49-8.54-57.05-8.54-30.18,0-57.44,6.75-81.76,20.23-24.33,13.49-43.62,33.23-57.88,59.21-14.26,25.98-21.39,57.66-21.39,95.03s7.02,68.88,21.06,94.87c14.04,25.98,33.2,45.75,57.47,59.29,24.27,13.54,51.77,20.32,82.51,20.32,23.33,0,44.03-3.54,62.11-10.61,18.08-7.07,33.42-16.61,46.02-28.61,12.6-12,22.53-25.29,29.77-39.89,7.24-14.59,11.58-29.41,13.02-44.45l-82.92-.5c-1.44,8.18-4.01,15.51-7.71,21.97-3.71,6.47-8.4,11.94-14.1,16.42-5.7,4.48-12.27,7.88-19.74,10.2-7.46,2.32-15.73,3.48-24.79,3.48-16.14,0-30.1-3.84-41.88-11.53-11.78-7.68-20.9-19.13-27.37-34.33-6.47-15.2-9.7-34.08-9.7-56.64s3.18-40.13,9.54-55.39c6.36-15.26,15.48-26.92,27.37-34.99Z" fill="#FDF9F5" style="stroke-width: 0px;"/>
      <path d="m1853.59,114.11c-13.93,0-26.15,4.12-36.65,12.36-10.5,8.24-18.08,20.76-22.72,37.56h-2.65v-46.44h-78.78v254.74h81.1v-138.32c0-10.17,2.18-19.04,6.55-26.62,4.37-7.57,10.39-13.49,18.08-17.75,7.68-4.25,16.34-6.38,25.96-6.38,4.86,0,10.42.39,16.67,1.16,6.25.77,11.3,1.82,15.18,3.15v-70.49c-3.43-1-7.13-1.74-11.11-2.24s-7.85-.75-11.61-.75Z" fill="#FDF9F5" style="stroke-width: 0px;"/>
      <path d="m2031.54,299.37h-2.65l-46.94-181.77h-84.91l90.55,264.03-3.15,7.63c-2.54,6.3-6.17,10.7-10.86,13.19-4.7,2.49-10.28,3.51-16.75,3.07-6.47-.44-13.68-1.99-21.64-4.64l-17.91,58.88c6.19,2.43,13.6,4.4,22.22,5.89,8.62,1.49,17.8,2.24,27.53,2.24,19.46,0,35.85-3.04,49.17-9.12,13.32-6.08,24.21-14.46,32.67-25.13,8.46-10.67,15.01-22.97,19.65-36.9l96.03-279.12h-85.41l-47.6,181.77Z" fill="#FDF9F5" style="stroke-width: 0px;"/>
      <path d="m2400.13,128.21c-15.42-9.29-31.98-13.93-49.67-13.93-13.38,0-24.85,2.3-34.41,6.88-9.56,4.59-17.41,10.48-23.55,17.66-6.14,7.19-10.86,14.65-14.18,22.39h-2.49v-43.62h-80.27v350.27h81.1v-136.82h1.66c3.43,7.85,8.32,15.2,14.68,22.06,6.36,6.86,14.23,12.38,23.63,16.58,9.4,4.2,20.51,6.3,33.33,6.3,18.79,0,35.91-4.86,51.33-14.59,15.42-9.73,27.7-24.32,36.82-43.78,9.12-19.46,13.68-43.62,13.68-72.48s-4.75-54.62-14.26-73.97c-9.51-19.35-21.97-33.67-37.4-42.95Zm-36.98,152.58c-3.59,10.17-8.87,18.05-15.84,23.63-6.97,5.58-15.42,8.38-25.38,8.38s-18.27-2.79-25.29-8.38c-7.02-5.58-12.38-13.46-16.09-23.63-3.71-10.17-5.56-22.11-5.56-35.82s1.85-25.93,5.56-35.99c3.7-10.06,9.04-17.8,16-23.22,6.97-5.42,15.42-8.13,25.38-8.13s18.55,2.77,25.46,8.29c6.91,5.53,12.16,13.32,15.75,23.38,3.59,10.06,5.39,21.95,5.39,35.66s-1.8,25.65-5.39,35.82Z" fill="#FDF9F5" style="stroke-width: 0px;"/>
      <path d="m2622.69,311.72c-3.48.61-6.77.91-9.87.91-4.31,0-8.02-.63-11.11-1.91-3.1-1.27-5.45-3.43-7.05-6.47-1.6-3.04-2.4-7.05-2.4-12.02v-114.93h45.94v-59.71h-45.94v-61.03h-81.1v61.03h-33.67v59.71h33.67v123.89c-.22,17.25,3.23,31.57,10.37,42.95,7.13,11.39,17.47,19.76,31.01,25.13,13.54,5.36,29.82,7.6,48.84,6.72,9.73-.44,18.1-1.49,25.13-3.15,7.02-1.66,12.46-3.04,16.34-4.15l-12.27-58.54c-1.77.44-4.39.97-7.88,1.58Z" fill="#FDF9F5" style="stroke-width: 0px;"/>
      <path d="m2864.83,130.78c-19.18-11-42.15-16.5-68.91-16.5s-49.73,5.5-68.91,16.5c-19.18,11-33.94,26.37-44.28,46.11-10.34,19.74-15.51,42.71-15.51,68.91s5.17,49.01,15.51,68.74c10.34,19.74,25.1,35.11,44.28,46.11,19.18,11,42.15,16.5,68.91,16.5s49.73-5.5,68.91-16.5c19.18-11,33.94-26.37,44.28-46.11,10.34-19.74,15.51-42.65,15.51-68.74s-5.17-49.17-15.51-68.91c-10.34-19.74-25.1-35.1-44.28-46.11Zm-28.19,151.34c-3.59,10.61-8.76,18.91-15.51,24.88-6.75,5.97-14.98,8.96-24.71,8.96s-18.55-2.99-25.46-8.96c-6.91-5.97-12.16-14.26-15.76-24.88-3.59-10.61-5.39-22.89-5.39-36.82s1.8-26.54,5.39-37.15c3.59-10.61,8.84-18.91,15.76-24.88,6.91-5.97,15.4-8.96,25.46-8.96s17.97,2.99,24.71,8.96c6.74,5.97,11.91,14.26,15.51,24.88,3.59,10.61,5.39,23,5.39,37.15s-1.8,26.2-5.39,36.82Z" fill="#FDF9F5" style="stroke-width: 0px;"/>
      <polygon points="3182.17 169.01 3048.34 169.01 3048.34 32.68 2966.24 32.68 2966.24 372.34 3048.34 372.34 3048.34 235.85 3182.17 235.85 3182.17 372.34 3264.1 372.34 3264.1 32.68 3182.17 32.68 3182.17 169.01" fill="#FDF9F5" style="stroke-width: 0px;"/>
      <path d="m3479.87,262.38c0,9.84-1.91,18.22-5.72,25.13-3.81,6.91-8.96,12.16-15.42,15.76-6.47,3.59-13.74,5.39-21.81,5.39-12.38,0-22.17-3.98-29.35-11.94-7.19-7.96-10.84-18.85-10.95-32.67V117.6h-81.1v162.36c.11,19.24,3.81,36.02,11.11,50.33,7.3,14.32,17.52,25.46,30.68,33.42,13.16,7.96,28.41,11.94,45.77,11.94,19.13,0,35.46-4.56,49.01-13.68,13.54-9.12,23.14-21.48,28.77-37.07h2.65v47.43h77.29V117.6h-80.93v144.78Z" fill="#FDF9F5" style="stroke-width: 0px;"/>
      <path d="m3854.35,171.17c-9.51-19.35-21.97-33.67-37.4-42.95s-31.98-13.93-49.67-13.93c-13.38,0-24.85,2.3-34.41,6.88-9.56,4.59-17.41,10.48-23.55,17.66-6.14,7.19-10.86,14.65-14.18,22.39h-1.66V32.68h-81.1v339.66h80.27v-41.3h2.49c3.43,7.85,8.32,15.2,14.68,22.06,6.36,6.86,14.23,12.38,23.63,16.58,9.4,4.2,20.51,6.3,33.33,6.3,18.79,0,35.91-4.86,51.33-14.59,15.42-9.73,27.7-24.32,36.82-43.78,9.12-19.46,13.68-43.62,13.68-72.48s-4.75-54.62-14.26-73.97Zm-74.38,109.62c-3.59,10.17-8.87,18.05-15.84,23.63-6.97,5.58-15.42,8.38-25.38,8.38s-18.27-2.79-25.29-8.38c-7.02-5.58-12.38-13.46-16.09-23.63-3.71-10.17-5.56-22.11-5.56-35.82s1.85-25.93,5.56-35.99c3.7-10.06,9.04-17.8,16-23.22,6.97-5.42,15.42-8.13,25.38-8.13s18.55,2.77,25.46,8.29c6.91,5.53,12.16,13.32,15.75,23.38,3.59,10.06,5.39,21.95,5.39,35.66s-1.8,25.65-5.39,35.82Z" fill="#FDF9F5" style="stroke-width: 0px;"/>
    </g>
  </g>
</svg>